<svg width="105" height="28" viewBox="0 0 105 28" fill="none" xmlns="http://www.w3.org/2000/svg">
<path fill-rule="evenodd" clip-rule="evenodd" d="M0.0162462 22.2199C-0.0670622 23.0635 0.156611 24.2267 1 25.2884C2.03857 26.596 4.01687 27.7498 7.51888 27.9644C8.27327 28.0106 9.09836 28.0132 10 27.9644V11.3055C9.80381 10.8088 9.47807 10.2077 9.01625 9.5912C7.92565 8.13532 6.07614 6.59321 3.3815 6.13546C2.37836 5.96505 1.25809 5.94492 0.0162462 6.13546V22.2199Z" fill="#2E89ED"/>
<path fill-rule="evenodd" clip-rule="evenodd" d="M14.4811 22.9627C13.7267 23.011 12.9016 23.0138 12 22.9627V5.54662C12.1962 5.02734 12.5219 4.39897 12.9838 3.75444C14.0743 2.23238 15.9239 0.620179 18.6185 0.141619C19.6216 -0.0365367 20.7419 -0.0575829 21.9838 0.141619V16.9572C22.0671 17.8392 21.8434 19.0551 21 20.1652C19.9614 21.5321 17.9831 22.7385 14.4811 22.9627Z" fill="#2E89ED"/>
<path d="M96.3972 22.892H92.7012V10.892H96.1812L96.4212 12.14C97.1652 11.108 98.5332 10.508 100.093 10.508C102.949 10.508 104.605 12.332 104.605 15.476V22.892H100.909V16.364C100.909 14.852 100.069 13.868 98.7972 13.868C97.3332 13.868 96.3972 14.828 96.3972 16.316V22.892Z" fill="white"/>
<path d="M82.2983 23.204C79.7543 23.204 78.1703 21.716 78.1703 19.364C78.1703 17.156 79.7303 15.788 82.6103 15.572L85.9703 15.308V15.116C85.9703 13.94 85.2503 13.316 83.9303 13.316C82.3703 13.316 81.5303 13.916 81.5303 14.996H78.4583C78.4583 12.284 80.6903 10.508 84.1223 10.508C87.6023 10.508 89.5703 12.452 89.5703 15.884V22.892H86.3063L86.0663 21.308C85.6823 22.412 84.0983 23.204 82.2983 23.204ZM83.5943 20.468C85.0103 20.468 85.9943 19.772 85.9943 18.404V17.756L84.1223 17.924C82.5143 18.068 81.9383 18.428 81.9383 19.196C81.9383 20.06 82.4663 20.468 83.5943 20.468Z" fill="white"/>
<path d="M66.3227 22.892H62.8427V4.79599H66.5387V12.284C67.2587 11.204 68.8427 10.484 70.5707 10.484C73.9307 10.484 76.0667 13.1 76.0667 17.012C76.0667 20.732 73.6907 23.204 70.2827 23.204C68.6027 23.204 67.1627 22.46 66.5147 21.356L66.3227 22.892ZM66.5627 16.82C66.5627 18.62 67.7627 19.82 69.4907 19.82C71.2427 19.82 72.3467 18.596 72.3467 16.82C72.3467 15.044 71.2427 13.82 69.4907 13.82C67.7627 13.82 66.5627 15.02 66.5627 16.82Z" fill="white"/>
<path d="M60.4938 10.892V14.372H59.3178C57.2058 14.372 55.9338 15.308 55.9338 17.684V22.892H52.2378V10.916H55.7178L55.9098 12.692C56.4138 11.516 57.4698 10.724 59.0778 10.724C59.5098 10.724 59.9898 10.772 60.4938 10.892Z" fill="white"/>
<path d="M34 16.22V5.13199H37.888V15.956C37.888 18.188 39.112 19.412 41.296 19.412C43.504 19.412 44.752 18.14 44.752 15.956V5.13199H48.64V16.22C48.64 20.444 45.76 23.18 41.296 23.18C36.856 23.18 34 20.468 34 16.22Z" fill="white"/>
</svg>
