<svg width="145" height="39" viewBox="0 0 145 39" fill="none" xmlns="http://www.w3.org/2000/svg">
<path d="M132.838 31.8269H127.745V15.2906H132.54L132.871 17.0104C133.896 15.5883 135.781 14.7615 137.931 14.7615C141.867 14.7615 144.149 17.275 144.149 21.6075V31.8269H139.055V22.8312C139.055 20.7476 137.898 19.3916 136.145 19.3916C134.128 19.3916 132.838 20.7145 132.838 22.765V31.8269Z" fill="#1C2938"/>
<path d="M113.409 32.2569C109.903 32.2569 107.721 30.2064 107.721 26.9653C107.721 23.9226 109.87 22.0375 113.839 21.7398L118.469 21.376V21.1114C118.469 19.4909 117.477 18.631 115.658 18.631C113.508 18.631 112.351 19.4578 112.351 20.9461H108.118C108.118 17.2088 111.193 14.7615 115.923 14.7615C120.718 14.7615 123.43 17.4404 123.43 22.1697V31.8269H118.932L118.602 29.6442C118.072 31.1655 115.89 32.2569 113.409 32.2569ZM115.195 28.4866C117.146 28.4866 118.502 27.5275 118.502 25.6424V24.7494L115.923 24.9809C113.707 25.1793 112.913 25.6754 112.913 26.7338C112.913 27.9244 113.641 28.4866 115.195 28.4866Z" fill="#1C2938"/>
<path d="M91.3945 31.8269H86.599V6.89014H91.6922V17.2088C92.6844 15.7205 94.8672 14.7283 97.2484 14.7283C101.879 14.7283 104.822 18.3333 104.822 23.7241C104.822 28.8504 101.548 32.2568 96.8515 32.2568C94.5364 32.2568 92.5521 31.2316 91.6591 29.7102L91.3945 31.8269ZM91.7253 23.4595C91.7253 25.94 93.3789 27.5936 95.7601 27.5936C98.1744 27.5936 99.6958 25.9069 99.6958 23.4595C99.6958 21.0121 98.1744 19.3254 95.7601 19.3254C93.3789 19.3254 91.7253 20.9791 91.7253 23.4595Z" fill="#1C2938"/>
<path d="M83.362 15.2906V20.0861H81.7414C78.831 20.0861 77.0782 21.376 77.0782 24.6501V31.8269H71.985V15.3237H76.7805L77.0451 17.771C77.7396 16.1505 79.1948 15.0591 81.4107 15.0591C82.006 15.0591 82.6674 15.1252 83.362 15.2906Z" fill="#1C2938"/>
<path d="M46.8529 22.6327V7.35315H52.2107V22.2689C52.2107 25.3447 53.8974 27.0314 56.907 27.0314C59.9497 27.0314 61.6694 25.2785 61.6694 22.2689V7.35315H67.0272V22.6327C67.0272 28.4535 63.0585 32.2238 56.907 32.2238C50.7885 32.2238 46.8529 28.4866 46.8529 22.6327Z" fill="#1C2938"/>
<path fill-rule="evenodd" clip-rule="evenodd" d="M0.0223876 30.6195C-0.0924134 31.7821 0.215814 33.3849 1.37803 34.848C2.8092 36.6498 5.53535 38.2399 10.3612 38.5355C11.4008 38.5992 12.5378 38.6028 13.7803 38.5355V15.5791C13.5099 14.8947 13.061 14.0664 12.4246 13.2168C10.9218 11.2106 8.37308 9.08553 4.6598 8.45474C3.27744 8.21991 1.73368 8.19217 0.0223876 8.45474V30.6195Z" fill="#2E89ED"/>
<path fill-rule="evenodd" clip-rule="evenodd" d="M19.9553 31.6432C18.9158 31.7098 17.7788 31.7136 16.5363 31.6432V7.64339C16.8066 6.92781 17.2555 6.0619 17.8919 5.17371C19.3948 3.07628 21.9434 0.854623 25.6567 0.195155C27.0391 -0.0503485 28.5829 -0.0793507 30.2941 0.195155V23.3674C30.4089 24.5828 30.1007 26.2585 28.9385 27.7882C27.5073 29.6719 24.7812 31.3342 19.9553 31.6432Z" fill="#2E89ED"/>
</svg>
