<svg width="108" height="32" viewBox="0 0 108 32" fill="none" xmlns="http://www.w3.org/2000/svg">
<path fill-rule="evenodd" clip-rule="evenodd" d="M0.0162462 24.2199C-0.0670622 25.0635 0.156611 26.2267 1 27.2884C2.03857 28.596 4.01687 29.7498 7.51888 29.9644C8.27327 30.0106 9.09836 30.0132 10 29.9644V13.3055C9.80381 12.8088 9.47807 12.2077 9.01625 11.5912C7.92565 10.1353 6.07614 8.59321 3.3815 8.13546C2.37836 7.96505 1.25809 7.94492 0.0162462 8.13546V24.2199Z" fill="#2E89ED"/>
<path fill-rule="evenodd" clip-rule="evenodd" d="M14.4811 24.9627C13.7267 25.011 12.9016 25.0138 12 24.9627V7.54662C12.1962 7.02734 12.5219 6.39897 12.9838 5.75444C14.0743 4.23238 15.9239 2.62018 18.6185 2.14162C19.6216 1.96346 20.7419 1.94242 21.9838 2.14162V18.9572C22.0671 19.8392 21.8434 21.0551 21 22.1652C19.9614 23.5321 17.9831 24.7385 14.4811 24.9627Z" fill="#2E89ED"/>
<path d="M35.728 18.328V7.24H39.616V18.064C39.616 20.296 40.84 21.52 43.024 21.52C45.232 21.52 46.48 20.248 46.48 18.064V7.24H50.368V18.328C50.368 22.552 47.488 25.288 43.024 25.288C38.584 25.288 35.728 22.576 35.728 18.328ZM62.2217 13V16.48H61.0457C58.9337 16.48 57.6617 17.416 57.6617 19.792V25H53.9657V13.024H57.4457L57.6377 14.8C58.1417 13.624 59.1978 12.832 60.8058 12.832C61.2378 12.832 61.7177 12.88 62.2217 13ZM68.0507 25H64.5707V6.904H68.2667V14.392C68.9867 13.312 70.5707 12.592 72.2987 12.592C75.6588 12.592 77.7947 15.208 77.7947 19.12C77.7947 22.84 75.4188 25.312 72.0107 25.312C70.3307 25.312 68.8907 24.568 68.2427 23.464L68.0507 25ZM68.2907 18.928C68.2907 20.728 69.4907 21.928 71.2187 21.928C72.9707 21.928 74.0747 20.704 74.0747 18.928C74.0747 17.152 72.9707 15.928 71.2187 15.928C69.4907 15.928 68.2907 17.128 68.2907 18.928ZM84.0263 25.312C81.4823 25.312 79.8983 23.824 79.8983 21.472C79.8983 19.264 81.4583 17.896 84.3383 17.68L87.6983 17.416V17.224C87.6983 16.048 86.9783 15.424 85.6583 15.424C84.0983 15.424 83.2583 16.024 83.2583 17.104H80.1863C80.1863 14.392 82.4183 12.616 85.8503 12.616C89.3303 12.616 91.2983 14.56 91.2983 17.992V25H88.0343L87.7943 23.416C87.4103 24.52 85.8263 25.312 84.0263 25.312ZM85.3223 22.576C86.7383 22.576 87.7223 21.88 87.7223 20.512V19.864L85.8503 20.032C84.2423 20.176 83.6663 20.536 83.6663 21.304C83.6663 22.168 84.1943 22.576 85.3223 22.576ZM98.1252 25H94.4292V13H97.9092L98.1492 14.248C98.8932 13.216 100.261 12.616 101.821 12.616C104.677 12.616 106.333 14.44 106.333 17.584V25H102.637V18.472C102.637 16.96 101.797 15.976 100.525 15.976C99.0612 15.976 98.1252 16.936 98.1252 18.424V25Z" fill="white"/>
</svg>
