<svg width="105" height="29" viewBox="0 0 105 29" fill="none" xmlns="http://www.w3.org/2000/svg">
<path d="M96.761 23.1832H93.051V11.1379H96.5442L96.7851 12.3906C97.5319 11.3547 98.9051 10.7524 100.471 10.7524C103.338 10.7524 105 12.5833 105 15.7392V23.1832H101.29V16.6305C101.29 15.1128 100.447 14.1251 99.17 14.1251C97.7005 14.1251 96.761 15.0887 96.761 16.5823V23.1832Z" fill="#1C2938"/>
<path d="M82.6089 23.4963C80.0553 23.4963 78.4653 22.0027 78.4653 19.6418C78.4653 17.4255 80.0312 16.0523 82.9221 15.8355L86.2948 15.5705V15.3778C86.2948 14.1974 85.5721 13.571 84.2471 13.571C82.6812 13.571 81.838 14.1733 81.838 15.2574H78.7544C78.7544 12.5351 80.9948 10.7524 84.4398 10.7524C87.9329 10.7524 89.9084 12.7037 89.9084 16.1487V23.1832H86.632L86.3911 21.5932C86.0057 22.7013 84.4157 23.4963 82.6089 23.4963ZM83.9098 20.75C85.3312 20.75 86.3189 20.0514 86.3189 18.6782V18.0278L84.4398 18.1964C82.8257 18.3409 82.2476 18.7023 82.2476 19.4732C82.2476 20.3405 82.7776 20.75 83.9098 20.75Z" fill="#1C2938"/>
<path d="M66.573 23.1832H63.0799V5.01886H66.7899V12.5351C67.5126 11.451 69.1026 10.7283 70.8371 10.7283C74.2098 10.7283 76.3538 13.3542 76.3538 17.281C76.3538 21.015 73.9689 23.4963 70.548 23.4963C68.8617 23.4963 67.4162 22.7495 66.7658 21.6414L66.573 23.1832ZM66.814 17.0882C66.814 18.895 68.0185 20.0996 69.753 20.0996C71.5116 20.0996 72.6198 18.8709 72.6198 17.0882C72.6198 15.3055 71.5116 14.0769 69.753 14.0769C68.0185 14.0769 66.814 15.2815 66.814 17.0882Z" fill="#1C2938"/>
<path d="M60.722 11.1379V14.631H59.5416C57.4216 14.631 56.1448 15.5705 56.1448 17.9555V23.1832H52.4349V11.162H55.928L56.1207 12.9447C56.6266 11.7642 57.6866 10.9692 59.3007 10.9692C59.7343 10.9692 60.2161 11.0174 60.722 11.1379Z" fill="#1C2938"/>
<path d="M34.1283 16.486V5.35611H38.031V16.221C38.031 18.4614 39.2596 19.69 41.4518 19.69C43.6682 19.69 44.9209 18.4132 44.9209 16.221V5.35611H48.8236V16.486C48.8236 20.7259 45.9327 23.4722 41.4518 23.4722C36.9951 23.4722 34.1283 20.75 34.1283 16.486Z" fill="#1C2938"/>
<path fill-rule="evenodd" clip-rule="evenodd" d="M0.0163075 22.3038C-0.0673153 23.1506 0.157202 24.3181 1.00377 25.3839C2.04626 26.6963 4.03203 27.8546 7.54726 28.0699C8.3045 28.1163 9.1327 28.1189 10.0377 28.0699V11.3481C9.84081 10.8496 9.51385 10.2462 9.05028 9.6274C7.95557 8.16603 6.09908 6.6181 3.39427 6.15862C2.38733 5.98756 1.26284 5.96736 0.0163075 6.15862V22.3038Z" fill="#2E89ED"/>
<path fill-rule="evenodd" clip-rule="evenodd" d="M14.5358 23.0494C13.7785 23.0979 12.9503 23.1006 12.0453 23.0494V5.56755C12.2422 5.04632 12.5692 4.41558 13.0328 3.76861C14.1275 2.24081 15.984 0.62252 18.6888 0.142153C19.6957 -0.0366746 20.8202 -0.0578003 22.0667 0.142153V17.0212C22.1504 17.9065 21.9258 19.1271 21.0793 20.2413C20.0368 21.6134 18.051 22.8243 14.5358 23.0494Z" fill="#2E89ED"/>
</svg>
